<?xml version="1.0" encoding="UTF-8" standalone="no"?>
<!DOCTYPE svg PUBLIC "-//W3C//DTD SVG 1.1//EN" "http://www.w3.org/Graphics/SVG/1.1/DTD/svg11.dtd">
<svg xmlns="http://www.w3.org/2000/svg" version="1.1" viewBox="0.00 0.00 590.00 423.00">
<g stroke-width="2.00" fill="none" stroke-linecap="butt">
<path stroke="#1c4112" vector-effect="non-scaling-stroke" d="
  M 294.48 176.67
  Q 293.51 174.38 293.76 171.56
  A 0.51 0.51 0.0 0 0 293.25 171.00
  L 280.00 171.00
  A 0.75 0.75 0.0 0 0 279.25 171.75
  L 279.25 185.45
  Q 279.25 185.84 278.89 185.97
  L 278.47 186.14"
/>
<path stroke="#1c4112" vector-effect="non-scaling-stroke" d="
  M 273.37 189.02
  Q 270.77 183.96 268.82 182.96
  Q 258.62 177.70 251.90 185.94
  Q 251.62 186.28 251.36 185.93
  C 246.57 179.51 235.90 178.66 232.66 187.02
  A 0.22 0.22 0.0 0 1 232.24 186.94
  L 232.26 182.25
  A 0.66 0.66 0.0 0 0 231.64 181.59
  L 225.37 181.19"
/>
<path stroke="#626b10" vector-effect="non-scaling-stroke" d="
  M 271.09 240.79
  Q 264.17 240.75 258.50 238.95"
/>
<path stroke="#1c4112" vector-effect="non-scaling-stroke" d="
  M 259.39 197.13
  Q 259.64 195.27 258.73 193.18
  C 257.93 191.33 255.90 191.10 254.63 192.61
  Q 252.42 195.24 253.12 199.03
  Q 252.66 199.79 253.82 200.13"
/>
<path stroke="#626b10" vector-effect="non-scaling-stroke" d="
  M 253.65 237.79
  Q 253.14 238.37 252.82 239.59
  Q 252.66 240.17 252.06 240.18
  L 239.27 240.46
  Q 238.76 240.48 238.74 239.97
  L 238.61 235.78"
/>
<path stroke="#1c4112" vector-effect="non-scaling-stroke" d="
  M 237.94 209.14
  L 238.35 209.04
  Q 238.88 208.91 238.87 208.36
  Q 238.69 201.46 238.72 194.56
  C 238.74 190.18 232.99 191.45 232.57 195.57
  Q 231.86 202.70 232.43 211.22
  Q 232.46 211.61 232.66 211.71
  Q 232.87 211.82 233.26 211.79"
/>
<path stroke="#626b10" vector-effect="non-scaling-stroke" d="
  M 232.57 235.95
  L 232.19 239.88
  Q 232.13 240.50 231.51 240.50
  L 219.23 240.50
  A 0.71 0.70 1.5 0 1 218.52 239.76
  Q 218.61 237.91 217.97 237.15"
/>
<path stroke="#1c4112" vector-effect="non-scaling-stroke" d="
  M 217.97 220.89
  L 218.26 220.62
  Q 218.50 220.39 218.50 220.05
  L 217.98 191.03"
/>
<path stroke="#1c4112" vector-effect="non-scaling-stroke" d="
  M 213.51 196.32
  Q 212.87 209.31 213.56 222.50
  Q 213.57 222.79 214.02 222.85"
/>
<path stroke="#626b10" vector-effect="non-scaling-stroke" d="
  M 207.20 238.19
  L 201.92 240.73"
/>
<path stroke="#3e5d0d" vector-effect="non-scaling-stroke" d="
  M 393.62 180.48
  Q 393.58 180.69 393.54 180.84
  A 0.69 0.68 5.1 0 1 392.96 181.32
  C 381.91 182.42 378.84 190.35 378.77 200.25
  Q 378.70 211.34 378.98 222.43
  C 379.23 232.28 382.48 240.19 393.58 240.87
  Q 394.01 240.90 394.31 241.20
  L 394.62 241.51"
/>
<path stroke="#3e5d0d" vector-effect="non-scaling-stroke" d="
  M 360.56 240.78
  L 373.22 240.53
  Q 373.75 240.52 373.75 239.99
  L 373.75 171.50
  A 0.50 0.50 0.0 0 0 373.25 171.00
  L 359.74 171.00
  A 0.56 0.56 0.0 0 0 359.18 171.56
  L 358.90 226.75"
/>
<path stroke="#1c4112" vector-effect="non-scaling-stroke" d="
  M 393.82 212.30
  Q 392.19 220.13 393.94 227.65"
/>
<path stroke="#1c4112" vector-effect="non-scaling-stroke" d="
  M 393.85 195.13
  Q 392.50 199.63 393.63 204.78"
/>
</g>
<path fill="#378124" d="
  M 294.48 176.67
  Q 293.51 174.38 293.76 171.56
  A 0.51 0.51 0.0 0 0 293.25 171.00
  L 280.00 171.00
  A 0.75 0.75 0.0 0 0 279.25 171.75
  L 279.25 185.45
  Q 279.25 185.84 278.89 185.97
  L 278.47 186.14
  L 273.37 189.02
  Q 270.77 183.96 268.82 182.96
  Q 258.62 177.70 251.90 185.94
  Q 251.62 186.28 251.36 185.93
  C 246.57 179.51 235.90 178.66 232.66 187.02
  A 0.22 0.22 0.0 0 1 232.24 186.94
  L 232.26 182.25
  A 0.66 0.66 0.0 0 0 231.64 181.59
  L 225.37 181.19
  C 235.80 168.85 248.97 159.23 262.65 151.37
  Q 305.36 126.84 348.06 102.34
  A 0.39 0.38 -6.7 0 1 348.62 102.78
  Q 335.29 149.83 294.48 176.67
  Z"
/>
<path fill="#7cb919" d="
  M 393.62 180.48
  Q 393.58 180.69 393.54 180.84
  A 0.69 0.68 5.1 0 1 392.96 181.32
  C 381.91 182.42 378.84 190.35 378.77 200.25
  Q 378.70 211.34 378.98 222.43
  C 379.23 232.28 382.48 240.19 393.58 240.87
  Q 394.01 240.90 394.31 241.20
  L 394.62 241.51
  L 394.24 297.94
  A 0.39 0.38 22.6 0 1 393.58 298.21
  C 388.76 293.42 383.88 288.51 380.06 283.09
  Q 366.58 263.94 360.56 240.78
  L 373.22 240.53
  Q 373.75 240.52 373.75 239.99
  L 373.75 171.50
  A 0.50 0.50 0.0 0 0 373.25 171.00
  L 359.74 171.00
  A 0.56 0.56 0.0 0 0 359.18 171.56
  L 358.90 226.75
  Q 356.82 220.05 356.78 213.50
  Q 356.49 159.47 356.64 105.32
  A 0.30 0.30 0.0 0 1 357.15 105.11
  Q 388.12 136.40 393.62 180.48
  Z"
/>
<path fill="#000000" d="
  M 160.73 210.72
  L 173.27 210.76
  A 1.17 1.16 -1.3 0 1 174.43 211.86
  C 174.89 221.21 176.08 234.95 165.30 239.43
  C 157.35 242.73 146.41 240.75 142.40 232.51
  Q 140.75 229.12 140.46 221.19
  Q 139.78 203.14 140.62 187.18
  C 141.28 174.66 150.33 168.86 162.05 171.46
  C 175.52 174.44 174.43 186.18 173.85 198.42
  Q 173.82 199.00 173.24 199.00
  L 161.09 199.00
  A 0.60 0.59 0.5 0 1 160.50 198.41
  Q 160.51 192.26 160.45 186.33
  C 160.42 182.70 154.12 182.38 154.05 187.32
  Q 153.87 199.97 154.06 223.49
  C 154.12 229.64 160.39 229.02 160.44 224.94
  Q 160.54 217.92 160.49 210.95
  A 0.24 0.23 0.0 0 1 160.73 210.72
  Z"
/>
<path fill="#000000" d="
  M 294.48 176.67
  Q 293.09 179.29 293.94 182.90
  Q 294.19 183.98 295.07 183.32
  C 301.25 178.71 310.18 181.29 312.88 187.94
  Q 314.12 191.01 314.20 200.08
  Q 314.28 210.16 314.21 225.25
  C 314.18 232.89 311.36 240.54 302.52 240.78
  C 298.19 240.90 296.91 239.29 294.55 236.03
  A 0.44 0.43 27.2 0 0 293.76 236.28
  L 293.74 239.93
  Q 293.74 240.59 293.07 240.58
  L 279.90 240.27
  A 0.71 0.71 0.0 0 1 279.21 239.55
  Q 279.73 213.42 279.12 187.00
  Q 279.11 186.33 278.47 186.14
  L 278.89 185.97
  Q 279.25 185.84 279.25 185.45
  L 279.25 171.75
  A 0.75 0.75 0.0 0 1 280.00 171.00
  L 293.25 171.00
  A 0.51 0.51 0.0 0 1 293.76 171.56
  Q 293.51 174.38 294.48 176.67
  Z
  M 299.99 195.05
  A 3.03 3.03 0.0 0 0 296.96 192.02
  L 296.82 192.02
  A 3.03 3.03 0.0 0 0 293.79 195.05
  L 293.79 226.91
  A 3.03 3.03 0.0 0 0 296.82 229.94
  L 296.96 229.94
  A 3.03 3.03 0.0 0 0 299.99 226.91
  L 299.99 195.05
  Z"
/>
<path fill="#000000" d="
  M 360.56 240.78
  Q 360.13 240.71 359.75 240.17
  Q 359.51 239.82 359.44 239.26
  Q 358.67 232.58 358.90 226.75
  L 359.18 171.56
  A 0.56 0.56 0.0 0 1 359.74 171.00
  L 373.25 171.00
  A 0.50 0.50 0.0 0 1 373.75 171.50
  L 373.75 239.99
  Q 373.75 240.52 373.22 240.53
  L 360.56 240.78
  Z"
/>
<path fill="#000000" d="
  M 393.62 180.48
  L 393.73 180.75
  Q 393.89 181.14 394.31 181.11
  C 415.51 179.41 413.85 196.74 413.09 211.76
  Q 413.06 212.26 412.55 212.26
  L 393.82 212.30
  Q 392.19 220.13 393.94 227.65
  Q 393.85 229.47 395.07 229.91
  C 400.82 232.04 399.60 221.01 399.35 218.45
  A 0.64 0.64 0.0 0 1 399.99 217.75
  L 412.50 217.75
  A 1.01 1.00 0.8 0 1 413.51 218.78
  C 413.15 232.07 410.63 241.35 395.13 240.97
  A 0.44 0.43 11.1 0 0 394.73 241.23
  L 394.62 241.51
  L 394.31 241.20
  Q 394.01 240.90 393.58 240.87
  C 382.48 240.19 379.23 232.28 378.98 222.43
  Q 378.70 211.34 378.77 200.25
  C 378.84 190.35 381.91 182.42 392.96 181.32
  A 0.69 0.68 5.1 0 0 393.54 180.84
  Q 393.58 180.69 393.62 180.48
  Z
  M 393.85 195.13
  Q 392.50 199.63 393.63 204.78
  Q 395.86 205.64 398.85 205.14
  Q 399.35 205.05 399.40 204.55
  Q 399.93 199.10 398.89 193.80
  A 2.65 2.64 88.6 0 0 396.68 191.69
  Q 393.63 191.23 393.85 195.13
  Z"
/>
<path fill="#000000" d="
  M 213.51 196.32
  Q 212.87 209.31 213.56 222.50
  Q 213.57 222.79 214.02 222.85
  C 213.64 223.48 213.21 224.31 213.17 225.10
  Q 212.84 232.61 207.20 238.19
  L 201.92 240.73
  C 189.75 241.66 178.70 239.18 178.39 224.79
  Q 178.06 209.61 178.32 198.02
  C 178.55 187.60 185.34 181.33 195.63 181.08
  Q 209.83 180.73 213.51 196.32
  Z
  M 198.98 195.19
  A 3.15 3.15 0.0 0 0 195.83 192.04
  L 195.67 192.04
  A 3.15 3.15 0.0 0 0 192.52 195.19
  L 192.52 226.85
  A 3.15 3.15 0.0 0 0 195.67 230.00
  L 195.83 230.00
  A 3.15 3.15 0.0 0 0 198.98 226.85
  L 198.98 195.19
  Z"
/>
<path fill="#000000" d="
  M 225.37 181.19
  L 231.64 181.59
  A 0.66 0.66 0.0 0 1 232.26 182.25
  L 232.24 186.94
  A 0.22 0.22 0.0 0 0 232.66 187.02
  C 235.90 178.66 246.57 179.51 251.36 185.93
  Q 251.62 186.28 251.90 185.94
  Q 258.62 177.70 268.82 182.96
  Q 270.77 183.96 273.37 189.02
  Q 273.84 210.63 273.45 232.81
  Q 273.44 232.94 273.76 236.66
  Q 274.05 240.14 271.09 240.79
  Q 264.17 240.75 258.50 238.95
  Q 259.30 237.32 259.31 236.81
  Q 259.72 217.12 259.39 197.13
  Q 259.64 195.27 258.73 193.18
  C 257.93 191.33 255.90 191.10 254.63 192.61
  Q 252.42 195.24 253.12 199.03
  Q 252.66 199.79 253.82 200.13
  L 253.44 200.43
  A 1.04 1.03 71.3 0 0 253.04 201.25
  Q 252.96 218.09 252.71 234.91
  C 252.69 235.88 253.27 236.93 253.65 237.79
  Q 253.14 238.37 252.82 239.59
  Q 252.66 240.17 252.06 240.18
  L 239.27 240.46
  Q 238.76 240.48 238.74 239.97
  L 238.61 235.78
  Q 239.28 227.96 238.91 220.11
  C 238.77 217.18 239.33 213.22 238.60 209.68
  Q 238.51 209.25 237.94 209.14
  L 238.35 209.04
  Q 238.88 208.91 238.87 208.36
  Q 238.69 201.46 238.72 194.56
  C 238.74 190.18 232.99 191.45 232.57 195.57
  Q 231.86 202.70 232.43 211.22
  Q 232.46 211.61 232.66 211.71
  Q 232.87 211.82 233.26 211.79
  Q 232.29 212.31 232.26 213.00
  Q 231.91 222.31 232.57 235.95
  L 232.19 239.88
  Q 232.13 240.50 231.51 240.50
  L 219.23 240.50
  A 0.71 0.70 1.5 0 1 218.52 239.76
  Q 218.61 237.91 217.97 237.15
  Q 218.42 236.45 218.45 235.68
  Q 218.60 232.33 218.47 221.96
  Q 218.47 221.53 218.21 221.20
  L 217.97 220.89
  L 218.26 220.62
  Q 218.50 220.39 218.50 220.05
  L 217.98 191.03
  L 218.58 182.14
  A 0.66 0.64 -89.5 0 1 219.19 181.53
  L 225.37 181.19
  Z"
/>
<path fill="#000000" d="
  M 338.76 236.24
  Q 338.10 236.61 338.01 237.40
  Q 337.96 237.85 337.66 238.19
  Q 335.73 240.42 332.75 240.78
  C 323.23 241.96 319.79 236.27 319.55 227.79
  Q 319.00 208.52 319.57 189.26
  Q 319.68 185.76 319.16 182.88
  Q 318.92 181.54 320.28 181.53
  L 332.64 181.52
  A 0.92 0.92 0.0 0 1 333.56 182.46
  Q 333.25 201.28 333.20 220.50
  C 333.20 222.67 332.57 229.46 335.80 229.64
  C 340.11 229.87 339.57 226.93 339.67 223.39
  C 340.02 209.64 339.65 195.70 340.07 182.18
  A 0.76 0.76 0.0 0 1 340.84 181.44
  L 353.20 181.64
  Q 353.75 181.65 353.75 182.20
  L 353.75 239.75
  A 0.75 0.75 0.0 0 1 353.00 240.50
  L 340.50 240.50
  Q 340.00 240.50 340.00 240.00
  L 340.00 236.97
  A 0.84 0.83 75.3 0 0 338.76 236.24
  Z"
/>
<path fill="#000000" d="
  M 436.05 194.39
  Q 436.80 194.90 437.07 194.04
  L 440.87 182.27
  Q 441.11 181.53 441.89 181.54
  L 450.83 181.63
  Q 451.58 181.64 451.33 182.35
  L 442.04 209.08
  A 4.41 4.39 -45.4 0 0 442.05 212.03
  L 451.78 239.43
  Q 451.93 239.86 451.65 240.22
  Q 451.27 240.72 450.77 240.39
  A 0.39 0.33 58.3 0 0 450.56 240.32
  L 438.93 240.45
  Q 438.18 240.46 437.93 239.75
  L 432.89 225.54
  A 0.72 0.72 0.0 0 0 431.52 225.55
  L 426.91 239.15
  A 1.78 1.77 9.4 0 1 425.23 240.35
  L 416.94 240.35
  A 0.68 0.67 9.3 0 1 416.30 239.46
  L 426.39 209.75
  A 3.08 3.07 44.2 0 0 426.36 207.72
  L 417.29 182.70
  A 0.84 0.84 0.0 0 1 418.09 181.58
  L 430.54 181.76
  A 1.02 1.00 80.2 0 1 431.47 182.43
  Q 433.31 187.70 435.30 193.19
  Q 435.63 194.11 436.05 194.39
  Z"
/>
<path fill="#378124" d="
  M 217.98 191.03
  L 218.50 220.05
  Q 218.50 220.39 218.26 220.62
  L 217.97 220.89
  L 214.02 222.85
  Q 213.57 222.79 213.56 222.50
  Q 212.87 209.31 213.51 196.32
  L 217.98 191.03
  Z"
/>
<path fill="#378124" d="
  M 259.39 197.13
  L 253.82 200.13
  Q 252.66 199.79 253.12 199.03
  Q 252.42 195.24 254.63 192.61
  C 255.90 191.10 257.93 191.33 258.73 193.18
  Q 259.64 195.27 259.39 197.13
  Z"
/>
<path fill="#378124" d="
  M 237.94 209.14
  L 233.26 211.79
  Q 232.87 211.82 232.66 211.71
  Q 232.46 211.61 232.43 211.22
  Q 231.86 202.70 232.57 195.57
  C 232.99 191.45 238.74 190.18 238.72 194.56
  Q 238.69 201.46 238.87 208.36
  Q 238.88 208.91 238.35 209.04
  L 237.94 209.14
  Z"
/>
<path fill="#378124" d="
  M 393.85 195.13
  L 393.63 204.78
  Q 392.50 199.63 393.85 195.13
  Z"
/>
<path fill="#378124" d="
  M 393.82 212.30
  L 393.94 227.65
  Q 392.19 220.13 393.82 212.30
  Z"
/>
<path fill="#c4d620" d="
  M 238.61 235.78
  L 238.74 239.97
  Q 238.76 240.48 239.27 240.46
  L 252.06 240.18
  Q 252.66 240.17 252.82 239.59
  Q 253.14 238.37 253.65 237.79
  L 258.50 238.95
  Q 264.17 240.75 271.09 240.79
  C 300.25 251.82 326.77 269.18 353.76 284.61
  C 362.92 289.85 377.33 297.00 388.58 304.13
  A 0.51 0.51 0.0 0 1 388.43 305.06
  Q 345.19 315.91 304.67 298.34
  C 293.59 293.54 280.96 286.39 268.42 279.15
  Q 235.22 259.97 201.92 240.73
  L 207.20 238.19
  L 217.97 237.15
  Q 218.61 237.91 218.52 239.76
  A 0.71 0.70 1.5 0 0 219.23 240.50
  L 231.51 240.50
  Q 232.13 240.50 232.19 239.88
  L 232.57 235.95
  L 238.61 235.78
  Z"
/>
</svg>
